<svg width="105" height="69" viewBox="0 0 105 69" fill="none" xmlns="http://www.w3.org/2000/svg">
<path d="M57.1907 44.859C57.311 39.8146 57.8522 35.3107 58.8144 31.3473C59.7766 27.2637 61.1598 23.4804 62.9639 19.9974C64.768 16.3943 66.9931 13.0313 69.6392 9.90862C72.2852 6.6658 75.2921 3.36292 78.6598 0L93.4536 6.84595C92.4914 7.92689 91.5292 9.18799 90.567 10.6292C89.7251 11.9504 88.823 13.5718 87.8608 15.4935C86.8986 17.4151 86.0567 19.577 85.3351 21.9791C88.1014 22.4595 90.6873 23.4204 93.0928 24.8616C95.4983 26.1828 97.543 27.8642 99.2268 29.906C101.031 31.9478 102.414 34.2298 103.376 36.752C104.459 39.2742 105 41.9765 105 44.859C105 48.2219 104.338 51.4047 103.015 54.4073C101.813 57.2898 100.129 59.812 97.9639 61.9739C95.799 64.1358 93.2131 65.8773 90.2062 67.1984C87.3196 68.3995 84.2526 69 81.0051 69C77.7577 69 74.6907 68.3995 71.8041 67.1984C68.9175 65.8773 66.3918 64.1358 64.2268 61.9739C62.0619 59.812 60.3179 57.2898 58.9948 54.4073C57.7921 51.4047 57.1907 48.2219 57.1907 44.859ZM0 44.859C0.120275 39.8146 0.661512 35.3107 1.62371 31.3473C2.58591 27.2637 3.96907 23.4804 5.7732 19.9974C7.57732 16.3943 9.74227 13.0313 12.268 9.90862C14.9141 6.6658 17.9811 3.36292 21.4691 0L36.2629 6.84595C35.1804 7.92689 34.1581 9.18799 33.1959 10.6292C32.354 11.9504 31.4519 13.5718 30.4897 15.4935C29.6478 17.4151 28.866 19.577 28.1443 21.9791C30.9107 22.4595 33.4364 23.4204 35.7216 24.8616C38.1271 26.1828 40.1718 27.8642 41.8557 29.906C43.6598 31.9478 45.043 34.2298 46.0052 36.752C47.0876 39.2742 47.6289 41.9765 47.6289 44.859C47.6289 48.2219 46.9674 51.4047 45.6443 54.4073C44.4416 57.2898 42.7577 59.812 40.5928 61.9739C38.4278 64.1358 35.9021 65.8773 33.0155 67.1984C30.1289 68.3995 27.0017 69 23.634 69C20.3866 69 17.3196 68.3995 14.433 67.1984C11.5464 65.8773 9.02062 64.1358 6.85567 61.9739C4.811 59.812 3.12715 57.2898 1.80412 54.4073C0.601375 51.4047 0 48.2219 0 44.859Z" fill="#C8DAEC"/>
</svg>
