<svg width="16" height="10" viewBox="0 0 16 10" fill="none" xmlns="http://www.w3.org/2000/svg">
<path d="M8 10C9.65685 10 11 8.65685 11 7C11 5.34315 9.65685 4 8 4C6.34315 4 5 5.34315 5 7C5 8.65685 6.34315 10 8 10Z" fill="#7D91D5"/>
<path fill-rule="evenodd" clip-rule="evenodd" d="M1.31635 3.42845C2.43277 1.71722 4.46814 0 8 0C11.5319 0 13.5672 1.71722 14.6836 3.42845C15.2332 4.27084 15.5596 5.10711 15.7491 5.72941C15.8442 6.04191 15.906 6.30418 15.9444 6.49142C15.9636 6.58515 15.977 6.66038 15.9859 6.71406C15.9903 6.7409 15.9936 6.76239 15.9959 6.77813C15.9971 6.786 15.998 6.79243 15.9987 6.79739C15.999 6.79987 15.9993 6.80198 15.9996 6.80371L15.9999 6.80603L16 6.80697C16.0001 6.80739 16.0001 6.80778 15.2057 6.90291C14.4112 6.99804 14.4113 6.99839 14.4113 6.99871L14.4114 6.99923L14.4114 6.99954C14.4113 6.99859 14.4109 6.99623 14.4104 6.99249C14.4093 6.98501 14.4073 6.97204 14.4043 6.95395C14.3983 6.91774 14.3883 6.86115 14.3731 6.78709C14.3427 6.63877 14.2919 6.42168 14.2119 6.15893C14.0511 5.63075 13.777 4.93304 13.3258 4.24145C12.4406 2.88472 10.8732 1.53398 8 1.53398C5.12683 1.53398 3.55937 2.88472 2.67422 4.24145C2.22302 4.93304 1.94893 5.63075 1.78812 6.15893C1.70813 6.42168 1.65728 6.63877 1.62687 6.78709C1.61169 6.86115 1.60166 6.91774 1.59567 6.95395C1.59268 6.97204 1.59071 6.98501 1.58961 6.99249C1.58906 6.99623 1.58872 6.99859 1.58859 6.99954L1.58863 6.99923L1.5887 6.99871C1.58874 6.99839 1.58879 6.99804 0.794342 6.90291C-0.000104269 6.80778 -5.33461e-05 6.80739 8.95692e-07 6.80697L0.00012578 6.80603L0.000435288 6.80371C0.000668565 6.80198 0.0009559 6.79987 0.00129986 6.79739C0.00198769 6.79243 0.00290192 6.786 0.00406143 6.77813C0.00638017 6.76239 0.00968196 6.7409 0.0141192 6.71406C0.0229904 6.66038 0.0364203 6.58515 0.0556377 6.49142C0.09403 6.30418 0.155774 6.04191 0.250915 5.72941C0.440381 5.10711 0.766763 4.27084 1.31635 3.42845ZM1.58855 6.99987C1.58851 7.00012 1.58853 7.00001 1.58859 6.99954L1.58855 6.99987ZM14.4115 6.99987L14.4114 6.99954C14.4115 7.00001 14.4115 7.00012 14.4115 6.99987Z" fill="#7D91D5"/>
</svg>
