<svg width="30" height="30" viewBox="0 0 30 30" fill="none" xmlns="http://www.w3.org/2000/svg">
<g id="image">
<path id="Vector" fill-rule="evenodd" clip-rule="evenodd" d="M23.0141 7.39095L5.81163 14.0253C4.63793 14.4962 4.644 15.1517 5.59801 15.443L9.8874 16.7829L11.5296 21.8152C11.7287 22.3662 11.6303 22.5847 12.2093 22.5847C12.656 22.5847 12.8526 22.3808 13.1026 22.138C13.2604 21.9839 14.1986 21.0699 15.2473 20.0516L19.7103 23.3493C20.5308 23.8021 21.1243 23.5678 21.3282 22.5871L24.2582 8.78191C24.558 7.5803 23.7994 7.03411 23.0141 7.39095ZM10.561 16.4747L20.231 10.3744C20.7141 10.0806 21.1571 10.2384 20.7929 10.5613L12.5127 18.0319L12.1911 21.4705L10.561 16.4747Z" fill="#2747B9"/>
</g>
</svg>
