<svg width="30" height="30" viewBox="0 0 30 30" fill="none" xmlns="http://www.w3.org/2000/svg">
<g id="image">
<path id="Vector" fill-rule="evenodd" clip-rule="evenodd" d="M23.0791 7.39095L5.87657 14.0253C4.70287 14.4962 4.70894 15.1517 5.66295 15.443L9.95234 16.7829L11.5945 21.8152C11.7936 22.3662 11.6953 22.5847 12.2742 22.5847C12.7209 22.5847 12.9175 22.3808 13.1676 22.138C13.3254 21.9839 14.2636 21.0699 15.3123 20.0516L19.7752 23.3493C20.5957 23.8021 21.1892 23.5678 21.3932 22.5871L24.3231 8.78191C24.6229 7.5803 23.8643 7.03411 23.0791 7.39095ZM10.626 16.4747L20.2959 10.3744C20.779 10.0806 21.222 10.2384 20.8579 10.5613L12.5777 18.0319L12.256 21.4705L10.626 16.4747Z" fill="white"/>
</g>
</svg>
