<svg width="30" height="30" viewBox="0 0 30 30" fill="none" xmlns="http://www.w3.org/2000/svg">
<g id="image">
<path id="Vector" fill-rule="evenodd" clip-rule="evenodd" d="M9.02311 7H20.7372C21.1631 6.99999 21.5306 6.99998 21.8349 7.02073C22.1551 7.04259 22.4754 7.09065 22.792 7.22174C23.5057 7.51739 24.0728 8.08448 24.3684 8.79824C24.4995 9.11472 24.5475 9.43506 24.5695 9.75533C24.5902 10.0595 24.5902 10.427 24.5902 10.8529V18.6831C24.5902 19.109 24.5902 19.4765 24.5695 19.7807C24.5475 20.1009 24.4995 20.4213 24.3684 20.7378C24.0728 21.4515 23.5057 22.0187 22.792 22.3142C22.4754 22.4453 22.1551 22.4934 21.8349 22.5153C21.5306 22.536 21.1631 22.536 20.7372 22.536H9.0231C8.59718 22.536 8.22967 22.536 7.9255 22.5153C7.60523 22.4934 7.28489 22.4453 6.96841 22.3142C6.25465 22.0187 5.68755 21.4515 5.3919 20.7378C5.26082 20.4213 5.21275 20.1009 5.1909 19.7807C5.17015 19.4765 5.17016 19.109 5.17017 18.6831V10.8529C5.17016 10.427 5.17015 10.0595 5.1909 9.75533C5.21275 9.43506 5.26082 9.11472 5.3919 8.79824C5.68755 8.08448 6.25465 7.51739 6.96841 7.22174C7.28489 7.09065 7.60523 7.04259 7.9255 7.02073C8.22967 6.99998 8.59718 6.99999 9.02311 7ZM7.42041 9.21172C7.77355 8.80814 8.38699 8.76724 8.79058 9.12037L14.2408 13.8892C14.6068 14.2096 15.1535 14.2096 15.5196 13.8892L20.9698 9.12037C21.3733 8.76724 21.9868 8.80814 22.3399 9.21172C22.693 9.6153 22.6521 10.2287 22.2486 10.5819L16.7984 15.3508C15.7001 16.3118 14.0603 16.3118 12.962 15.3508L7.51176 10.5819C7.10818 10.2287 7.06728 9.6153 7.42041 9.21172Z" fill="#2747B9"/>
</g>
</svg>
