<svg width="44" height="43" viewBox="0 0 44 43" fill="none" xmlns="http://www.w3.org/2000/svg">
<path id="Viber" opacity="0.7" fill-rule="evenodd" clip-rule="evenodd" d="M22 0C34.1503 0 44 9.62588 44 21.5C44 33.3741 34.1503 43 22 43C9.84974 43 0 33.3741 0 21.5C0 9.62588 9.84974 0 22 0ZM23.3176 8.75779C24.8135 8.94025 26.0224 9.29239 27.3487 9.92464C28.6533 10.5484 29.4882 11.1382 30.5927 12.2118C31.6277 13.2259 32.2017 13.994 32.8105 15.1863C33.6585 16.8497 34.1412 18.8271 34.2237 21.0039C34.2542 21.7464 34.2324 21.9119 34.0585 22.1241C33.728 22.5357 33.0018 22.4677 32.754 22.0053C32.6756 21.8525 32.6539 21.721 32.6278 21.1269C32.5843 20.2146 32.5192 19.6248 32.3887 18.9204C31.8756 16.1581 30.5188 13.9515 28.3532 12.3688C26.5486 11.0449 24.683 10.3999 22.2392 10.2599C21.413 10.2132 21.2694 10.1836 21.0825 10.0435C20.7345 9.77617 20.7172 9.14819 21.052 8.8554C21.2564 8.67291 21.3999 8.64744 22.1087 8.66866C22.4783 8.68139 23.0219 8.72384 23.3176 8.75779ZM13.3769 9.21608C13.5291 9.26698 13.7639 9.38577 13.8987 9.47065C14.7249 10.0053 17.0253 12.878 17.7776 14.3122C18.2081 15.1312 18.3516 15.7379 18.2168 16.1877C18.0776 16.6715 17.8472 16.9261 16.8166 17.7366C16.4035 18.0632 16.0164 18.3985 15.9556 18.4876C15.799 18.7083 15.6729 19.1411 15.6729 19.4466C15.6773 20.1552 16.1469 21.4409 16.7644 22.4296C17.2427 23.1977 18.0993 24.1821 18.9473 24.9374C19.9431 25.8285 20.8215 26.4352 21.813 26.9148C23.0871 27.5343 23.8655 27.6913 24.4352 27.4325C24.5787 27.3688 24.7309 27.2839 24.7788 27.2458C24.8222 27.2075 25.1571 26.8087 25.5224 26.3674C26.2268 25.5017 26.3877 25.3617 26.8704 25.2005C27.4836 24.9968 28.1097 25.0519 28.7403 25.366C29.2186 25.6078 30.2623 26.2401 30.9363 26.6984C31.8233 27.3051 33.7193 28.8158 33.9759 29.1171C34.4281 29.6602 34.5065 30.356 34.202 31.1241C33.8802 31.9345 32.6278 33.4537 31.7538 34.1029C30.9623 34.6885 30.4014 34.9133 29.6621 34.9473C29.0534 34.977 28.8012 34.9261 28.0228 34.6121C21.9174 32.1552 17.0427 28.4891 13.1725 23.4522C11.1504 20.8214 9.61102 18.093 8.55863 15.2627C7.94553 13.6121 7.91513 12.895 8.4195 12.0505C8.63697 11.6941 9.56319 10.8115 10.2372 10.3193C11.3592 9.50459 11.8766 9.2033 12.2897 9.11846C12.5724 9.05904 13.0637 9.10574 13.3769 9.21608ZM23.6176 11.8341C26.2572 12.2118 28.301 13.4084 29.6404 15.3518C30.3927 16.4466 30.8623 17.7323 31.0232 19.1113C31.0797 19.6163 31.0797 20.5371 31.0189 20.6899C30.9623 20.8341 30.7797 21.0293 30.6231 21.1099C30.4536 21.1948 30.0927 21.1863 29.8926 21.0845C29.5577 20.919 29.4578 20.6559 29.4578 19.9431C29.4578 18.8441 29.1664 17.6856 28.662 16.786C28.088 15.7592 27.2531 14.9105 26.2355 14.3207C25.3615 13.8115 24.07 13.4339 22.8915 13.3405C22.4653 13.3066 22.2305 13.2217 22.0696 13.0392C21.8218 12.7634 21.7956 12.39 22.0043 12.0803C22.2305 11.7366 22.5783 11.6814 23.6176 11.8341ZM24.5439 15.0378C25.4005 15.216 26.0572 15.5343 26.6182 16.0477C27.34 16.7139 27.7358 17.5201 27.9096 18.6785C28.0271 19.4339 27.9793 19.7309 27.7053 19.977C27.4487 20.2061 26.9748 20.2146 26.6877 19.9982C26.479 19.8454 26.4138 19.6842 26.3659 19.2472C26.3094 18.6658 26.2051 18.2585 26.0268 17.8808C25.6441 17.0788 24.9701 16.663 23.8308 16.5272C23.2958 16.4635 23.135 16.4042 22.9611 16.2047C22.6436 15.8356 22.7653 15.2373 23.2045 15.0166C23.3698 14.936 23.4394 14.9275 23.8046 14.9487C24.0308 14.9614 24.3657 14.9996 24.5439 15.0378Z" fill="white"/>
</svg>
