<svg width="44" height="43" viewBox="0 0 44 43" fill="none" xmlns="http://www.w3.org/2000/svg">
<path id="&#229;&#189;&#162;&#231;&#138;&#182;" opacity="0.7" fill-rule="evenodd" clip-rule="evenodd" d="M6.62913 21.5C6.62913 13.0185 13.4894 6.14286 21.952 6.14286C32.2706 6.14286 38.1262 14.6752 37.2936 22.1845C37.0646 24.2491 36.474 25.3731 36.0231 25.971C35.4904 26.6772 34.5278 27.3443 33.6035 27.3111C32.9278 27.287 33.1299 26.3381 33.1734 25.9009L34.1951 15.6628C34.3635 13.9749 33.1348 12.4698 31.4507 12.3009C30.6523 12.2209 29.8952 12.4555 29.3012 12.9043C27.3403 11.2493 24.8043 10.2381 22.0143 10.2381C15.8389 10.2381 10.7152 15.2499 10.7152 21.5C10.7152 27.7571 15.8605 32.7619 22.029 32.7619C24.3362 32.7619 26.5268 32.0563 28.3545 30.8251C28.6875 31.2778 29.0843 31.6945 29.5472 32.0618C31.8126 33.8596 34.8236 33.8408 37.6236 32.4376C38.4036 32.0469 39.7169 31.2604 40.9125 29.6751C42.1083 28.0896 43.0499 25.8862 43.3852 22.8631C44.5959 11.9438 36.1497 0 21.952 0C10.1044 0 0.5 9.62588 0.5 21.5C0.5 33.3741 10.1044 43 21.952 43C25.3712 43 28.6119 42.1959 31.4879 40.7636C33.0036 40.0086 33.6217 38.1652 32.8686 36.646C32.1153 35.1271 30.276 34.5075 28.7602 35.2625C26.7129 36.2822 24.4039 36.8571 21.952 36.8571C13.4894 36.8571 6.62913 29.9814 6.62913 21.5ZM16.8444 21.5C16.8444 18.7032 19.163 16.381 22.0143 16.381C25.3006 16.381 27.7504 19.4143 27.089 22.5566C26.5965 24.8968 24.4717 26.619 22.029 26.619C19.1706 26.619 16.8444 24.2899 16.8444 21.5Z" fill="white"/>
</svg>
