<svg width="30" height="30" viewBox="0 0 30 30" fill="none" xmlns="http://www.w3.org/2000/svg">
<path fill-rule="evenodd" clip-rule="evenodd" d="M9.02305 7H20.7372C21.1631 6.99999 21.5306 6.99998 21.8348 7.02073C22.155 7.04259 22.4754 7.09065 22.7919 7.22174C23.5056 7.51739 24.0728 8.08448 24.3683 8.79824C24.4994 9.11472 24.5475 9.43506 24.5694 9.75533C24.5901 10.0595 24.5901 10.427 24.5901 10.8529V18.6831C24.5901 19.109 24.5901 19.4765 24.5694 19.7807C24.5475 20.1009 24.4994 20.4213 24.3683 20.7378C24.0728 21.4515 23.5056 22.0187 22.7919 22.3142C22.4754 22.4453 22.155 22.4934 21.8348 22.5153C21.5306 22.536 21.1631 22.536 20.7372 22.536H9.02304C8.59711 22.536 8.22961 22.536 7.92543 22.5153C7.60517 22.4934 7.28483 22.4453 6.96835 22.3142C6.25459 22.0187 5.68749 21.4515 5.39184 20.7378C5.26076 20.4213 5.21269 20.1009 5.19084 19.7807C5.17009 19.4765 5.1701 19.109 5.17011 18.6831V10.8529C5.1701 10.427 5.17009 10.0595 5.19084 9.75533C5.21269 9.43506 5.26076 9.11472 5.39184 8.79824C5.68749 8.08448 6.25459 7.51739 6.96835 7.22174C7.28483 7.09065 7.60517 7.04259 7.92543 7.02073C8.22961 6.99998 8.59712 6.99999 9.02305 7ZM7.42035 9.21172C7.77349 8.80814 8.38693 8.76724 8.79052 9.12037L14.2407 13.8892C14.6068 14.2096 15.1534 14.2096 15.5195 13.8892L20.9697 9.12037C21.3733 8.76724 21.9868 8.80814 22.3398 9.21172C22.693 9.6153 22.6521 10.2287 22.2485 10.5819L16.7983 15.3508C15.7 16.3118 14.0602 16.3118 12.9619 15.3508L7.5117 10.5819C7.10811 10.2287 7.06722 9.6153 7.42035 9.21172Z" fill="#2747B9"/>
</svg>
