<svg width="40" height="32" viewBox="0 0 40 32" fill="none" xmlns="http://www.w3.org/2000/svg">
<path id="Vector" opacity="0.7" d="M36.6074 0.28259C31.3305 2.39828 8.70393 11.4709 2.45222 13.9436C-1.74047 15.5275 0.713986 17.0125 0.713986 17.0125C0.713986 17.0125 4.29295 18.2003 7.36112 19.0913C10.4289 19.9822 12.065 18.9925 12.065 18.9925L26.4838 9.58812C31.5969 6.22237 30.3699 8.99402 29.1424 10.1822C26.4838 12.7563 22.0866 16.8145 18.4051 20.0814C16.7689 21.4673 17.5868 22.6551 18.303 23.2492C20.9616 25.4271 28.2225 29.8819 28.6312 30.1787C30.7914 31.6592 35.0407 33.7902 35.687 29.2877L38.2436 13.746C39.0619 8.49955 39.8797 3.64876 39.9818 2.26293C40.2889 -1.10323 36.6074 0.28259 36.6074 0.28259Z" fill="white"/>
</svg>
