<svg width="107" height="15" viewBox="0 0 107 15" fill="none" xmlns="http://www.w3.org/2000/svg">
<path d="M3.58992 0V14.7967H0V0H3.58992ZM12.2057 0L6.84135 8.94309H2.96424L2.53345 5.72154H4.98485L7.85679 0H12.2057ZM8.4722 14.7967L4.9746 8.32317L7.59011 5.93496L12.7186 14.7967H8.4722Z" fill="#2747B9"/>
<path d="M12.7391 9.41057V9.19715C12.7391 8.39092 12.8553 7.64905 13.0878 6.97154C13.3203 6.28726 13.6622 5.69444 14.1135 5.19309C14.5648 4.69173 15.1221 4.30217 15.7854 4.02439C16.4487 3.73984 17.2145 3.59756 18.0829 3.59756C18.9582 3.59756 19.7274 3.73984 20.3907 4.02439C21.0608 4.30217 21.6215 4.69173 22.0729 5.19309C22.5242 5.69444 22.8661 6.28726 23.0985 6.97154C23.331 7.64905 23.4473 8.39092 23.4473 9.19715V9.41057C23.4473 10.21 23.331 10.9519 23.0985 11.6362C22.8661 12.3137 22.5242 12.9065 22.0729 13.4146C21.6215 13.916 21.0643 14.3056 20.401 14.5833C19.7377 14.8611 18.9718 15 18.1034 15C17.235 15 16.4657 14.8611 15.7956 14.5833C15.1255 14.3056 14.5648 13.916 14.1135 13.4146C13.6622 12.9065 13.3203 12.3137 13.0878 11.6362C12.8553 10.9519 12.7391 10.21 12.7391 9.41057ZM16.1956 9.19715V9.41057C16.1956 9.82385 16.2264 10.21 16.288 10.5691C16.3495 10.9282 16.4521 11.2432 16.5957 11.5142C16.7393 11.7785 16.9341 11.9851 17.1803 12.1341C17.4265 12.2832 17.7342 12.3577 18.1034 12.3577C18.4658 12.3577 18.7667 12.2832 19.006 12.1341C19.2522 11.9851 19.4471 11.7785 19.5907 11.5142C19.7343 11.2432 19.8368 10.9282 19.8984 10.5691C19.9599 10.21 19.9907 9.82385 19.9907 9.41057V9.19715C19.9907 8.79743 19.9599 8.42141 19.8984 8.06911C19.8368 7.71003 19.7343 7.39499 19.5907 7.12398C19.4471 6.84621 19.2522 6.6294 19.006 6.47358C18.7599 6.31775 18.4522 6.23984 18.0829 6.23984C17.7205 6.23984 17.4162 6.31775 17.1701 6.47358C16.9307 6.6294 16.7393 6.84621 16.5957 7.12398C16.4521 7.39499 16.3495 7.71003 16.288 8.06911C16.2264 8.42141 16.1956 8.79743 16.1956 9.19715Z" fill="#2747B9"/>
<path d="M32.658 8.08943V10.7215H27.1192V8.08943H32.658ZM28.3808 3.80081V14.7967H24.9243V3.80081H28.3808ZM34.8735 3.80081V14.7967H31.4066V3.80081H34.8735Z" fill="#2747B9"/>
<path d="M42.9969 3.80081V14.7967H39.5301V3.80081H42.9969ZM46.5048 3.80081V6.42276H36.0838V3.80081H46.5048Z" fill="#2747B9"/>
<path d="M52.5153 15C51.6127 15 50.8059 14.8611 50.0947 14.5833C49.3836 14.2988 48.7818 13.9092 48.2895 13.4146C47.804 12.9201 47.4313 12.3509 47.1715 11.7073C46.9185 11.0637 46.792 10.3828 46.792 9.66463V9.27846C46.792 8.47222 46.9048 7.72696 47.1305 7.04268C47.3561 6.35163 47.6912 5.74865 48.1356 5.23374C48.5801 4.71883 49.1374 4.31911 49.8075 4.03455C50.4776 3.74323 51.2572 3.59756 52.1461 3.59756C52.9325 3.59756 53.6368 3.7229 54.259 3.97358C54.8813 4.22426 55.4078 4.58333 55.8386 5.05081C56.2762 5.51829 56.6078 6.08401 56.8335 6.74797C57.066 7.41192 57.1822 8.15718 57.1822 8.98374V10.376H48.1151V8.23171H53.8077V7.96748C53.8145 7.60163 53.7496 7.28997 53.6128 7.03252C53.4829 6.77507 53.2914 6.57859 53.0384 6.44309C52.7854 6.30759 52.4777 6.23984 52.1153 6.23984C51.7392 6.23984 51.4281 6.32114 51.1819 6.48374C50.9426 6.64634 50.7546 6.86992 50.6178 7.15447C50.4879 7.43225 50.3956 7.75407 50.3409 8.11992C50.2862 8.48577 50.2588 8.87195 50.2588 9.27846V9.66463C50.2588 10.0711 50.3135 10.4404 50.4229 10.7724C50.5392 11.1043 50.7033 11.3889 50.9153 11.626C51.1341 11.8564 51.3939 12.0359 51.6948 12.1646C52.0025 12.2934 52.3512 12.3577 52.741 12.3577C53.2128 12.3577 53.6778 12.2696 54.1359 12.0935C54.5941 11.9173 54.9873 11.626 55.3155 11.2195L56.8848 13.0691C56.6591 13.3875 56.3377 13.6958 55.9206 13.9939C55.5104 14.292 55.018 14.5359 54.4436 14.7256C53.8692 14.9085 53.2265 15 52.5153 15Z" fill="#2747B9"/>
<path d="M66.2596 8.08943V10.7215H60.7209V8.08943H66.2596ZM61.9825 3.80081V14.7967H58.5259V3.80081H61.9825ZM68.4751 3.80081V14.7967H65.0082V3.80081H68.4751Z" fill="#2747B9"/>
<path d="M76.5985 3.80081V14.7967H73.1317V3.80081H76.5985ZM80.1064 3.80081V6.42276H69.6854V3.80081H80.1064Z" fill="#2747B9"/>
<path d="M84.8041 10.1829L87.8606 3.80081H91.3172V14.7967H87.8606V8.39431L84.8041 14.7967H81.3372V3.80081H84.8041V10.1829Z" fill="#2747B9"/>
<path d="M100.148 11.0163L102.661 3.80081H105.338L101.307 14.7967H98.9996L94.9789 3.80081H97.6662L100.148 11.0163ZM96.8867 3.80081V14.7967H93.4301V3.80081H96.8867ZM103.543 14.7967V3.80081H107V14.7967H103.543Z" fill="#2747B9"/>
</svg>
