<svg width="224" height="37" viewBox="0 0 224 37" fill="none" xmlns="http://www.w3.org/2000/svg">
<path d="M7.99712 2.16016V34.713H0.5V2.16016H7.99712ZM25.9902 2.16016L14.7874 21.835H6.69048L5.79083 14.7476H10.9103L16.908 2.16016H25.9902ZM18.1932 34.713L10.8889 20.4711L16.3511 15.2171L27.0612 34.713H18.1932Z" fill="white"/>
<path d="M27.1041 22.8634V22.3939C27.1041 20.6202 27.3468 18.9881 27.8324 17.4976C28.3179 15.9921 29.0319 14.6879 29.9744 13.585C30.9169 12.482 32.0807 11.6249 33.4659 11.0138C34.8511 10.3878 36.4505 10.0748 38.2641 10.0748C40.092 10.0748 41.6985 10.3878 43.0837 11.0138C44.4831 11.6249 45.6541 12.482 46.5966 13.585C47.5391 14.6879 48.2531 15.9921 48.7386 17.4976C49.2242 18.9881 49.4669 20.6202 49.4669 22.3939V22.8634C49.4669 24.6222 49.2242 26.2543 48.7386 27.7597C48.2531 29.2503 47.5391 30.5545 46.5966 31.6724C45.6541 32.7753 44.4903 33.6324 43.1051 34.2435C41.7199 34.8546 40.1205 35.1602 38.3069 35.1602C36.4933 35.1602 34.8868 34.8546 33.4874 34.2435C32.0879 33.6324 30.9169 32.7753 29.9744 31.6724C29.0319 30.5545 28.3179 29.2503 27.8324 27.7597C27.3468 26.2543 27.1041 24.6222 27.1041 22.8634ZM34.3227 22.3939V22.8634C34.3227 23.7726 34.387 24.6222 34.5155 25.4122C34.644 26.2022 34.8582 26.8953 35.1581 27.4915C35.458 28.0728 35.865 28.5274 36.3791 28.8553C36.8932 29.1832 37.5358 29.3471 38.3069 29.3471C39.0638 29.3471 39.6921 29.1832 40.1919 28.8553C40.706 28.5274 41.113 28.0728 41.4129 27.4915C41.7128 26.8953 41.927 26.2022 42.0555 25.4122C42.184 24.6222 42.2483 23.7726 42.2483 22.8634V22.3939C42.2483 21.5145 42.184 20.6873 42.0555 19.9122C41.927 19.1222 41.7128 18.4291 41.4129 17.8329C41.113 17.2218 40.706 16.7448 40.1919 16.402C39.6778 16.0592 39.0352 15.8878 38.2641 15.8878C37.5072 15.8878 36.8718 16.0592 36.3577 16.402C35.8579 16.7448 35.458 17.2218 35.1581 17.8329C34.8582 18.4291 34.644 19.1222 34.5155 19.9122C34.387 20.6873 34.3227 21.5145 34.3227 22.3939Z" fill="white"/>
<path d="M68.7024 19.9569V25.7476H57.1354V19.9569H68.7024ZM59.7701 10.5219V34.713H52.5515V10.5219H59.7701ZM73.3292 10.5219V34.713H66.0891V10.5219H73.3292Z" fill="white"/>
<path d="M90.2941 10.5219V34.713H83.0541V10.5219H90.2941ZM97.6199 10.5219V16.2902H75.8568V10.5219H97.6199Z" fill="white"/>
<path d="M110.172 35.1602C108.287 35.1602 106.602 34.8546 105.117 34.2435C103.632 33.6175 102.375 32.7604 101.347 31.6724C100.333 30.5843 99.5549 29.3322 99.0122 27.9163C98.4838 26.5003 98.2197 25.0023 98.2197 23.4224V22.5728C98.2197 20.799 98.4553 19.1595 98.9265 17.6541C99.3978 16.1337 100.098 14.8072 101.026 13.6744C101.954 12.5416 103.118 11.6622 104.517 11.0362C105.917 10.3953 107.545 10.0748 109.401 10.0748C111.043 10.0748 112.514 10.3505 113.814 10.902C115.113 11.4535 116.213 12.2435 117.112 13.2719C118.026 14.3004 118.719 15.545 119.19 17.0057C119.676 18.4664 119.918 20.106 119.918 21.9244V24.9874H100.983V20.2699H112.871V19.6886C112.885 18.8837 112.75 18.1981 112.464 17.6317C112.193 17.0653 111.793 16.6331 111.265 16.335C110.736 16.0368 110.094 15.8878 109.337 15.8878C108.551 15.8878 107.902 16.0667 107.388 16.4244C106.888 16.7821 106.495 17.274 106.209 17.9C105.938 18.5111 105.745 19.2191 105.631 20.024C105.517 20.8289 105.46 21.6784 105.46 22.5728V23.4224C105.46 24.3167 105.574 25.129 105.802 25.8593C106.045 26.5897 106.388 27.2157 106.831 27.7374C107.288 28.2442 107.83 28.6392 108.459 28.9224C109.101 29.2055 109.829 29.3471 110.643 29.3471C111.629 29.3471 112.6 29.1534 113.557 28.7658C114.513 28.3783 115.335 27.7374 116.02 26.8431L119.297 30.9122C118.826 31.6127 118.155 32.2909 117.284 32.9467C116.427 33.6026 115.399 34.1392 114.199 34.5565C113 34.9589 111.657 35.1602 110.172 35.1602Z" fill="white"/>
<path d="M138.876 19.9569V25.7476H127.309V19.9569H138.876ZM129.943 10.5219V34.713H122.725V10.5219H129.943ZM143.502 10.5219V34.713H136.262V10.5219H143.502Z" fill="white"/>
<path d="M160.467 10.5219V34.713H153.227V10.5219H160.467ZM167.793 10.5219V16.2902H146.03V10.5219H167.793Z" fill="white"/>
<path d="M177.604 24.5626L183.987 10.5219H191.205V34.713H183.987V20.6276L177.604 34.713H170.363V10.5219H177.604V24.5626Z" fill="white"/>
<path d="M209.648 26.3959L214.896 10.5219H220.487L212.069 34.713H207.249L198.852 10.5219H204.465L209.648 26.3959ZM202.837 10.5219V34.713H195.618V10.5219H202.837ZM216.738 34.713V10.5219H223.957V34.713H216.738Z" fill="white"/>
</svg>
